<svg width="40" height="40" viewBox="0 0 40 40" fill="none" xmlns="http://www.w3.org/2000/svg">
<path d="M18.2679 3C19.0377 1.66667 20.9622 1.66667 21.732 3L35.5885 27C36.3583 28.3333 35.396 30 33.8564 30H6.14359C4.60399 30 3.64174 28.3333 4.41154 27L18.2679 3Z" fill="#43A257"/>
<path d="M19.95 23.182C20.561 23.182 21.016 22.779 21.016 22.194C21.016 21.583 20.561 21.206 19.95 21.206C19.365 21.206 18.884 21.583 18.884 22.194C18.884 22.779 19.365 23.182 19.95 23.182ZM19.027 20.569H20.873L20.99 13.887H18.871L19.027 20.569Z" fill="white"/>
</svg>
