<svg width="30" height="26" viewBox="0 0 30 26" fill="none" xmlns="http://www.w3.org/2000/svg">
<path d="M6.57178 25.4208H10.396L23.1683 0.50788H19.3069L6.57178 25.4208ZM30 19.8252C30 11.6278 17.1906 11.6635 17.1906 19.8252C17.1906 28.0583 30 28.0583 30 19.8252ZM20.4579 19.8252C20.4579 15.3701 26.7327 15.3345 26.7327 19.8252C26.7327 24.3516 20.4579 24.3516 20.4579 19.8252ZM12.8094 6.17478C12.8094 -2.05826 0 -2.05826 0 6.17478C0 14.3722 12.8094 14.3722 12.8094 6.17478ZM3.30446 6.17478C3.30446 1.64839 9.54208 1.64839 9.54208 6.17478C9.54208 10.6655 3.30446 10.7012 3.30446 6.17478Z" fill="#43A257"/>
</svg>
