<svg width="110" height="60" viewBox="0 0 110 60" fill="none" xmlns="http://www.w3.org/2000/svg">
<g clip-path="url(#clip0_1_1167)">
<path fill-rule="evenodd" clip-rule="evenodd" d="M46.8818 12.334H48.6574C49.4132 12.334 50.0314 12.9521 50.0314 13.7081V29.8624C50.0314 30.6184 49.4132 31.2364 48.6574 31.2364H46.8818C46.1258 31.2364 45.5078 30.6184 45.5078 29.8624V13.7081C45.5078 12.9521 46.1258 12.334 46.8818 12.334Z" fill="white"/>
<path fill-rule="evenodd" clip-rule="evenodd" d="M53.0205 8.69971H54.797C55.5525 8.69971 56.1705 9.31771 56.1705 10.0733V30.7109L56.1697 30.7532V32.8989C54.7291 32.7422 53.2235 32.5642 51.647 32.3701V30.7109V27.1149V10.0733C51.647 9.31771 52.265 8.69971 53.0205 8.69971Z" fill="white"/>
<path fill-rule="evenodd" clip-rule="evenodd" d="M59.4831 5.30688H61.2591C62.0148 5.30688 62.633 5.92488 62.633 6.68068V30.7109C62.633 31.4667 62.0148 32.0847 61.2591 32.0847H59.4831C58.7274 32.0847 58.1094 31.4667 58.1094 30.7109V6.68068C58.1094 5.92488 58.7274 5.30688 59.4831 5.30688Z" fill="white"/>
<path d="M46.4054 12.4197C48.9448 18.0961 49.7092 22.5603 48.7702 31.2319C48.733 31.2349 48.6954 31.2364 48.6574 31.2364H46.8818C46.1258 31.2364 45.5078 30.6185 45.5078 29.8625V13.7083C45.5078 13.1195 45.8826 12.6144 46.4054 12.4197Z" fill="white"/>
<path d="M58.1094 27.9205C69.7594 29.2076 73.9026 27.6358 79.1508 25.8002C83.6869 24.2138 93.5454 18.0565 94.4092 17.5376C95.4431 16.9168 98.6985 15.1995 98.6985 15.1995C98.6985 15.1995 97.8338 16.1661 97.82 16.1905C97.7877 16.2311 96.3592 18.7905 84.6469 26.9348C76.0108 32.5225 70.9252 34.3676 58.1094 33.1008V27.9205Z" fill="white"/>
<path d="M30.6566 24.2057C35.9098 24.8983 40.1335 25.4975 43.958 26.0407C46.0818 26.3415 48.0814 26.6251 49.973 26.8861V32.1603C47.8828 31.8959 45.6706 31.6053 43.3168 31.2961C39.1494 30.6327 34.5486 29.9003 29.9851 29.2189C13.1764 26.2525 9.87275 29.2835 9.40137 29.8971C9.51614 29.3877 12.1506 26.8871 18.5934 24.9841C22.4631 23.8411 28.8266 23.9643 30.6566 24.2057Z" fill="white"/>
<path d="M50.0297 28.9537L50.0737 32.1794C47.9835 31.9149 45.6705 31.6054 43.3167 31.2963C39.1493 30.6329 34.5485 29.9004 29.985 29.2191C21.0709 27.6459 15.955 27.7597 13.0457 28.3049C14.1579 27.8601 15.4469 27.4163 16.9267 27.0013C21.002 25.8583 27.7035 25.9813 29.6307 26.2229C35.1629 26.9153 39.6109 27.5147 43.6385 28.0579C45.8753 28.3587 48.0375 28.6924 50.0297 28.9537Z" fill="white"/>
<path d="M52.4197 8.75415C54.2147 16.0119 54.7864 21.8479 54.1871 32.6732C53.3514 32.5628 52.6635 32.4957 51.647 32.3699V30.7108V27.1148V10.0732C51.647 9.45015 51.9746 8.92077 52.4197 8.75415Z" fill="white"/>
<path d="M8.84632 36.3841H6.53931V47.2219H8.84632V42.8713C9.32609 42.8713 10.1311 42.8713 10.5493 42.7629L13.2743 47.2219H15.8907V46.8813L12.5775 41.8647C13.2433 41.1991 13.6149 40.2237 13.9401 38.9851C14.1723 38.1645 14.6367 37.9013 15.5037 37.9787V36.3995C13.1195 35.9041 12.1749 36.9569 11.8035 38.3039C11.5091 39.5269 11.2925 40.3477 10.7195 40.6573C10.2861 40.8739 9.51186 40.8585 8.84632 40.8585V36.3841ZM20.1793 39.5579C18.1975 39.5579 16.3085 40.7811 16.2623 43.3977C16.2623 45.9213 18.0273 47.4541 20.5355 47.4077C21.5263 47.4077 22.5481 47.1599 23.4307 46.7419L23.1829 45.1627C22.7339 45.3639 22.0681 45.5343 21.4025 45.6117C21.0773 45.6581 20.7211 45.6427 20.4115 45.6271C19.3741 45.5497 18.5073 45.1009 18.4297 43.9395H23.4927C24.0655 41.3849 22.9043 39.5579 20.1793 39.5579ZM20.1793 41.2145C20.9845 41.2145 21.7741 41.5551 21.7275 42.5461H18.4451C18.6157 41.6635 19.3587 41.2145 20.1793 41.2145ZM24.6849 40.9823C25.4589 40.9359 25.5209 41.2765 25.5209 42.0815V47.2219H27.6885V42.9487C27.6885 41.8959 28.3387 41.3229 29.1283 41.3075C29.9181 41.3075 30.4443 41.8959 30.4443 42.9021V47.2219H32.5499V42.9021C32.5655 41.9113 33.1693 41.3075 33.9279 41.3075C34.6713 41.3075 35.1821 41.8959 35.1355 42.8867V45.4259C35.1355 47.3303 36.5601 47.5779 38.1703 47.1599V45.9059C37.3805 45.9523 37.3031 45.6117 37.3031 44.9305V42.8867C37.3497 41.0441 36.8697 39.5889 34.7641 39.5889C33.7113 39.5889 32.6893 40.0069 32.2093 40.9823C31.8533 40.0689 31.2029 39.5889 29.9181 39.5889C28.9117 39.5889 27.9671 39.9915 27.5955 40.9205C27.5955 39.3875 25.7685 39.4341 24.6849 39.7283V40.9823ZM42.8925 47.2219C44.6263 47.2219 46.2057 46.4787 46.2057 44.5897C46.2057 42.6699 44.6573 41.9423 42.8925 41.9423H41.6537V39.7593H39.5791C39.5791 42.2519 39.5791 44.7291 39.5791 47.2219H42.8925ZM42.8615 43.5679C43.6355 43.5679 44.1155 43.9551 44.1155 44.5897C44.1155 45.2091 43.6355 45.6117 42.8615 45.6117H41.6537V43.5679H42.8615Z" fill="white"/>
<path d="M8.84632 36.384H6.53931V47.2218H8.84632V42.8712C9.32632 42.8712 10.1313 42.8713 10.5493 42.7628L13.2743 47.2218H15.8909V46.8812L12.5775 41.8648C13.2433 41.1993 13.6149 40.2236 13.9401 38.985C14.1723 38.1646 14.6367 37.9014 15.5037 37.9786V36.3994C13.1195 35.9043 12.1749 36.9568 11.8035 38.3038C11.5091 39.527 11.2925 40.3476 10.7195 40.6572C10.2861 40.874 9.51186 40.8586 8.84632 40.8586V36.384ZM66.8589 39.7592V43.986C66.8589 44.9924 66.1931 45.6426 65.3261 45.6272C64.5675 45.6272 63.9947 45.0852 64.0411 44.0326V41.4624C64.0411 39.6044 62.5547 39.4186 61.0839 39.7902V41.0598C61.8425 41.0134 61.8581 41.354 61.8581 42.0506V44.0326C61.8581 45.8904 62.4773 47.3302 64.6293 47.3302C65.5583 47.3302 66.5957 47.005 67.0137 46.138C67.0137 47.578 68.6859 47.4696 69.7387 47.2218L69.7231 45.8748C69.0576 45.9214 69.0265 45.6736 69.0265 44.9768V39.7592H66.8589ZM76.6129 39.7592V42.4222H73.6403V41.4624C73.6403 39.6044 72.2313 39.4186 70.7605 39.7902V41.0598C71.5191 41.0134 71.5501 41.354 71.5501 42.0506V47.2218H73.6403V44.2802H76.6129V45.5034C76.6129 47.3612 78.0216 47.547 79.4932 47.1754V45.9058C78.734 45.9524 78.7032 45.6118 78.7032 44.915V39.7592H76.6129ZM85.7786 46.0762C85.7786 47.4078 87.017 47.4696 88.1478 47.2218L88.1324 46.0142C87.4201 46.0608 87.4355 45.689 87.4355 45.0544V42.3604C87.4355 40.1928 85.794 39.5578 83.8739 39.5578C82.8678 39.5578 81.8616 39.7438 81.0724 40.1152L81.3509 41.6637C81.9855 41.3077 82.7132 41.2146 83.5024 41.2146C84.2463 41.2146 85.3609 41.3694 85.3609 42.2984V42.8094C84.8032 42.4533 84.0447 42.3294 83.3786 42.3294C81.7224 42.3294 80.4063 43.1964 80.4839 45.0234C80.5301 46.4632 81.7993 47.3612 83.1932 47.3612C84.1532 47.3612 85.3293 47.005 85.7786 46.0762ZM85.3139 44.5434C85.237 45.333 84.3386 45.689 83.6263 45.689C83.1309 45.689 82.6516 45.4258 82.6047 44.884C82.527 44.1564 83.0847 43.7692 83.7663 43.7228C84.3078 43.7228 84.8809 43.8622 85.3139 44.1564V44.5434ZM94.8978 39.7592V42.4222H91.9255V41.4624C91.9255 39.6044 90.5163 39.4186 89.0455 39.7902V41.0598C89.804 41.0134 89.8355 41.354 89.8355 42.0506V47.2218H91.9255V44.2802H94.8978V45.5034C94.8978 47.3612 96.307 47.547 97.7778 47.1754V45.9058C97.0193 45.9524 96.9886 45.6118 96.9886 44.915V39.7592H94.8978ZM106.495 42.4533C106.154 40.5024 104.512 39.527 102.826 39.527C100.859 39.527 98.8309 40.843 98.8309 43.4596C98.8309 46.0916 100.843 47.3922 102.809 47.3768C104.528 47.3612 106.215 46.3548 106.525 44.3576H104.466C104.203 45.1472 103.553 45.5188 102.872 45.5188C101.942 45.5188 100.982 44.8066 100.982 43.4596C100.982 42.1282 101.942 41.447 102.872 41.4314C103.537 41.416 104.172 41.7566 104.436 42.4533H106.495ZM20.1793 39.5578C18.1975 39.5578 16.3085 40.781 16.2623 43.3976C16.2623 45.9214 18.0273 47.454 20.5355 47.4078C21.5263 47.4078 22.5481 47.16 23.4307 46.742L23.1829 45.1628C22.7339 45.364 22.0681 45.5342 21.4025 45.6118C21.0773 45.658 20.7211 45.6426 20.4115 45.6272C19.3741 45.5498 18.5073 45.1008 18.4297 43.9396H23.4925C24.0655 41.3848 22.9043 39.5578 20.1793 39.5578ZM20.1793 41.2146C20.9845 41.2146 21.7741 41.5552 21.7275 42.5462H18.4451C18.6157 41.6636 19.3587 41.2146 20.1793 41.2146ZM24.6849 40.9824C25.4589 40.9358 25.5209 41.2766 25.5209 42.0816V47.2218H27.6883V42.9486C27.6883 41.896 28.3387 41.323 29.1283 41.3076C29.9179 41.3076 30.4443 41.896 30.4443 42.9022V47.2218H32.5499V42.9022C32.5655 41.9114 33.1693 41.3076 33.9279 41.3076C34.6711 41.3076 35.1821 41.896 35.1355 42.8868V45.4258C35.1355 47.3302 36.5601 47.578 38.1701 47.16V45.9058C37.3805 45.9524 37.3031 45.6118 37.3031 44.9306V42.8868C37.3497 41.0442 36.8697 39.589 34.7641 39.589C33.7113 39.589 32.6893 40.0068 32.2093 40.9824C31.8533 40.069 31.2029 39.589 29.9179 39.589C28.9115 39.589 27.9671 39.9914 27.5955 40.9204C27.5955 39.3876 25.7685 39.434 24.6849 39.7284V40.9824ZM42.8925 47.2218C44.6263 47.2218 46.2055 46.4788 46.2055 44.5898C46.2055 42.67 44.6573 41.9422 42.8925 41.9422H41.6539V39.7592H39.5791C39.5791 42.252 39.5791 44.7292 39.5791 47.2218H42.8925ZM42.8615 43.568C43.6355 43.568 44.1155 43.955 44.1155 44.5898C44.1155 45.209 43.6355 45.6118 42.8615 45.6118H41.6539V43.568H42.8615ZM57.5545 41.7876C57.5545 43.6298 56.1147 44.1098 54.6747 44.1718V39.4186C56.1456 39.4496 57.5545 39.945 57.5545 41.7876ZM49.6893 41.7876C49.6893 39.945 51.0827 39.4496 52.5691 39.4186V44.1718C51.1447 44.1098 49.6893 43.6298 49.6893 41.7876ZM52.5535 47.2528H54.6901V46.138C57.4771 46.0608 59.8767 44.8684 59.8767 41.7876C59.8767 38.7064 57.5545 37.4988 54.7057 37.4058V36.353H52.5379V37.4058C49.7511 37.4988 47.3669 38.8304 47.3669 41.7876C47.3669 44.7446 49.7511 46.0608 52.5535 46.138V47.2528Z" fill="white"/>
</g>
<defs>
<clipPath id="clip0_1_1167">
<rect width="110" height="60" fill="white"/>
</clipPath>
</defs>
</svg>
