<svg width="200" height="109" viewBox="0 0 200 70" fill="none" xmlns="http://www.w3.org/2000/svg">
<g clip-path="url(#clip0_1_1923)">
<path fill-rule="evenodd" clip-rule="evenodd" d="M85.168 22.4067H88.3937C89.7667 22.4067 90.8898 23.5297 90.8898 24.9031V54.25C90.8898 55.6234 89.7667 56.7461 88.3937 56.7461H85.168C83.7946 56.7461 82.6719 55.6234 82.6719 54.25V24.9031C82.6719 23.5297 83.7946 22.4067 85.168 22.4067Z" fill="#373737"/>
<path fill-rule="evenodd" clip-rule="evenodd" d="M96.3205 15.8044H99.5477C100.92 15.8044 102.043 16.9271 102.043 18.2998V55.7914L102.042 55.8684V59.7662C99.4244 59.4817 96.6892 59.1584 93.8252 58.8056V55.7914V49.2586V18.2998C93.8252 16.9271 94.9479 15.8044 96.3205 15.8044Z" fill="#43A257"/>
<path fill-rule="evenodd" clip-rule="evenodd" d="M108.061 9.64087H111.288C112.66 9.64087 113.783 10.7636 113.783 12.1366V55.7914C113.783 57.1645 112.66 58.2872 111.288 58.2872H108.061C106.688 58.2872 105.565 57.1645 105.565 55.7914V12.1366C105.565 10.7636 106.688 9.64087 108.061 9.64087Z" fill="#373737"/>
<path d="M84.3025 22.5623C88.9158 32.8744 90.3044 40.9844 88.5985 56.7378C88.531 56.7433 88.4627 56.7461 88.3937 56.7461H85.168C83.7946 56.7461 82.6719 55.6235 82.6719 54.2501V24.9032C82.6719 23.8336 83.3527 22.9161 84.3025 22.5623Z" fill="#373737"/>
<path d="M105.565 50.7221C126.73 53.0605 134.256 50.2051 143.791 46.8704C152.031 43.9884 169.941 32.8025 171.51 31.86C173.388 30.7322 179.302 27.6123 179.302 27.6123C179.302 27.6123 177.732 29.3683 177.706 29.4126C177.648 29.4864 175.053 34.136 153.775 48.9316C138.086 59.0824 128.848 62.4345 105.565 60.1332V50.7221Z" fill="#373737"/>
<path d="M55.6928 43.9739C65.236 45.2321 72.9092 46.3207 79.857 47.3075C83.7151 47.8539 87.3478 48.3692 90.7842 48.8433V58.4247C86.9869 57.9444 82.9682 57.4164 78.6921 56.8548C71.1213 55.6497 62.7632 54.319 54.4729 53.0812C23.937 47.6922 17.9355 53.1986 17.0791 54.3133C17.2876 53.3879 22.0735 48.8451 33.7779 45.388C40.808 43.3116 52.3683 43.5353 55.6928 43.9739Z" fill="#373737"/>
<path d="M90.8868 52.599L90.9668 58.4592C87.1696 57.9786 82.9677 57.4164 78.6915 56.8548C71.1208 55.6496 62.7627 54.319 54.4724 53.0811C38.2784 50.2232 28.9846 50.4299 23.6992 51.4204C25.7198 50.6123 28.0615 49.8061 30.7497 49.0522C38.1533 46.9758 50.3276 47.1992 53.8286 47.6381C63.8789 48.896 71.9594 49.9848 79.2762 50.9717C83.3397 51.5181 87.2677 52.1245 90.8868 52.599Z" fill="#373737"/>
</g>
<defs>
<clipPath id="clip0_1_1923">
<rect width="199.833" height="109" fill="white"/>
</clipPath>
</defs>
</svg>
