<svg width="40" height="40" viewBox="0 0 40 40" fill="none" xmlns="http://www.w3.org/2000/svg">
<rect x="0.5" y="0.5" width="39" height="39" rx="5.5" stroke="#43A257"/>
<path fill-rule="evenodd" clip-rule="evenodd" d="M8.78019 18.2906C15.7581 15.2602 20.4034 13.2465 22.736 12.2696C29.3749 9.49842 30.7705 9.01994 31.6677 9C31.867 9 32.3056 9.03987 32.6047 9.27912C32.8439 9.47848 32.9037 9.73766 32.9436 9.93703C32.9835 10.1364 33.0234 10.5551 32.9835 10.8741C32.6246 14.6621 31.0696 23.8529 30.2721 28.0795C29.9332 29.8738 29.2752 30.472 28.6373 30.5318C27.2417 30.6514 26.185 29.6147 24.8493 28.7375C22.736 27.3618 21.5597 26.5045 19.5062 25.1488C17.1337 23.5938 18.6688 22.7365 20.0246 21.3409C20.3834 20.982 26.504 15.3997 26.6236 14.9013C26.6436 14.8415 26.6436 14.6022 26.504 14.4826C26.3645 14.363 26.1651 14.4029 26.0056 14.4428C25.7863 14.4826 22.4369 16.7155 15.9176 21.1216C14.9606 21.7795 14.1033 22.0985 13.3258 22.0786C12.4685 22.0586 10.8337 21.6001 9.5976 21.2013C8.10233 20.7228 6.90612 20.4637 7.00581 19.6263C7.06562 19.1877 7.66372 18.7491 8.78019 18.2906Z" fill="#43A257"/>
</svg>
