<svg width="40" height="33" viewBox="0 0 40 33" fill="none" xmlns="http://www.w3.org/2000/svg">
<path fill-rule="evenodd" clip-rule="evenodd" d="M3.17028 14.4358C13.6371 9.89024 20.605 6.86981 24.1039 5.40446C34.0624 1.24763 36.1558 0.529905 37.5015 0.5C37.8005 0.5 38.4585 0.559811 38.907 0.918674C39.2659 1.21773 39.3556 1.60649 39.4154 1.90555C39.4752 2.2046 39.535 2.83261 39.4752 3.31109C38.9369 8.99309 36.6043 22.7794 35.4081 29.1193C34.8997 31.8108 33.9129 32.7079 32.9559 32.7976C30.8625 32.9771 29.2775 31.422 27.2739 30.1062C24.1039 28.0427 22.3395 26.7568 19.2593 24.7232C15.7006 22.3906 18.0033 21.1047 20.0368 19.0113C20.5751 18.473 29.756 10.0996 29.9355 9.35195C29.9654 9.26223 29.9654 8.90337 29.756 8.72394C29.5467 8.54451 29.2476 8.60432 29.0084 8.66413C28.6794 8.72394 23.6554 12.0733 13.8764 18.6824C12.4409 19.6693 11.155 20.1477 9.98867 20.1178C8.70275 20.0879 6.25052 19.4001 4.39639 18.802C2.1535 18.0843 0.359187 17.6955 0.508714 16.4395C0.598429 15.7816 1.49559 15.1237 3.17028 14.4358Z" fill="white"/>
</svg>
