<svg width="40" height="40" viewBox="0 0 40 40" fill="none" xmlns="http://www.w3.org/2000/svg">
<rect x="0.5" y="0.5" width="39" height="39" rx="5.5" stroke="#43A257"/>
<g clip-path="url(#clip0_1_856)">
<path fill-rule="evenodd" clip-rule="evenodd" d="M20.2357 7C13.1869 7 7.47233 12.6702 7.47233 19.6653C7.47233 22.0581 8.14148 24.2962 9.30365 26.2052L7 33L14.0667 30.7551C15.8954 31.7583 17.9983 32.3305 20.2357 32.3305C27.2856 32.3305 33 26.6597 33 19.6652C33 12.6702 27.2858 7 20.2357 7ZM20.2357 30.2085C18.0779 30.2085 16.0681 29.5662 14.39 28.4652L10.3068 29.7622L11.634 25.847C10.362 24.1084 9.61053 21.9729 9.61053 19.6652C9.61053 13.8513 14.3772 9.12121 20.2357 9.12121C26.0952 9.12121 30.8617 13.8511 30.8617 19.6652C30.8617 25.4789 26.0953 30.2085 20.2357 30.2085ZM26.2205 22.5429C25.9005 22.3691 24.3289 21.5273 24.0341 21.4084C23.7395 21.2898 23.5244 21.2279 23.2947 21.5435C23.0652 21.8583 22.4131 22.5633 22.2156 22.7721C22.0172 22.9808 21.8262 23.0003 21.5061 22.826C21.187 22.6527 20.1497 22.272 18.9467 21.1246C18.0108 20.2317 17.3969 19.1491 17.2188 18.8187C17.0406 18.4879 17.2175 18.3193 17.3867 18.1646C17.5386 18.0248 17.727 17.7987 17.8969 17.6162C18.0665 17.4336 18.1264 17.301 18.243 17.0892C18.3597 16.8774 18.3127 16.6866 18.2371 16.5219C18.1615 16.3575 17.5701 14.742 17.323 14.0849C17.076 13.4277 16.8008 13.5255 16.6106 13.518C16.4205 13.5115 16.2043 13.476 15.987 13.4681C15.7698 13.4598 15.4135 13.5278 15.103 13.84C14.7922 14.1523 13.921 14.903 13.861 16.4942C13.8009 18.0844 14.9102 19.6652 15.0648 19.8865C15.2196 20.1084 17.183 23.5565 20.4459 24.9746C23.7096 26.3922 23.7266 25.96 24.3254 25.9283C24.9244 25.8969 26.2825 25.2175 26.5827 24.4732C26.8828 23.7288 26.9069 23.0815 26.8305 22.9436C26.7541 22.8059 26.5404 22.7164 26.2205 22.5429Z" fill="#43A257"/>
</g>
<defs>
<clipPath id="clip0_1_856">
<rect width="26" height="26" fill="white" transform="translate(7 7)"/>
</clipPath>
</defs>
</svg>
